<svg width="196" height="49" viewBox="0 0 196 49" fill="none" xmlns="http://www.w3.org/2000/svg">
<path d="M44.4893 25.5008V19.482H50.179V26.065C50.179 30.9553 47.3577 35.3284 40.8216 35.3284C34.0504 35.3284 31.3701 31.0024 31.3701 26.018V5.32837H37.389V11.5823H50.179V15.9083H37.389V25.4067C37.389 28.3221 38.4234 30.0149 40.9156 30.0149C43.3608 30.0149 44.4893 28.3691 44.4893 25.5008Z" fill="url(#paint0_angular_706_1207)"/>
<path d="M44.4893 25.5008V19.482H50.179V26.065C50.179 30.9553 47.3577 35.3284 40.8216 35.3284C34.0504 35.3284 31.3701 31.0024 31.3701 26.018V5.32837H37.389V11.5823H50.179V15.9083H37.389V25.4067C37.389 28.3221 38.4234 30.0149 40.9156 30.0149C43.3608 30.0149 44.4893 28.3691 44.4893 25.5008Z" fill="#F046FF" fill-opacity="0.7"/>
<path d="M21.8731 34.7171H15.478L7.20215 11.5823H14.0204L18.8636 26.8644L23.7539 11.5823H30.196L21.8731 34.7171Z" fill="url(#paint1_angular_706_1207)"/>
<path d="M21.8731 34.7171H15.478L7.20215 11.5823H14.0204L18.8636 26.8644L23.7539 11.5823H30.196L21.8731 34.7171Z" fill="#F046FF" fill-opacity="0.7"/>
<path d="M63.2423 34.6815H59.3786L55.8 13.6529H58.6186L61.2788 30.2478H61.4055L64.0341 13.6529H66.7893L63.2423 34.6815ZM70.5285 34.6815H67.805V19.4801H70.5285V34.6815ZM70.5285 17.6116H67.805V14.1913H70.5285V17.6116ZM74.7898 23.9772V30.1844C74.7898 31.7679 75.4866 32.4646 76.785 32.4646C78.0835 32.4646 78.6219 31.7996 79.0336 29.9311V24.1989C78.6535 22.3304 78.1468 21.697 76.8167 21.697C75.5499 21.697 74.7898 22.2987 74.7898 23.9772ZM81.6621 34.6815H79.2236L79.1286 32.4963H79.0019C78.3368 34.1431 77.3234 34.8715 75.6766 34.8715C73.3964 34.8715 72.0346 33.4464 72.0346 30.8178V23.3438C72.0346 20.7152 73.3964 19.2901 75.6449 19.2901C77.1651 19.2901 78.2418 19.9235 78.8435 21.3803H78.9702V13.3995H81.6621V34.6815ZM92.7245 29.4244V30.1211C92.7245 33.2881 91.1727 34.8715 87.9107 34.8715C84.7121 34.8715 83.1919 33.3514 83.1919 30.1211V24.0405C83.1919 20.8419 84.7121 19.2901 87.9424 19.2901C91.1727 19.2901 92.7245 20.8419 92.7245 24.0405V27.8092H85.8522V30.1844C85.8522 31.7046 86.5489 32.4646 87.9107 32.4646C89.3358 32.4646 90.0326 31.7046 90.0326 30.1844V29.4244H92.7245ZM90.0326 25.7824V23.9772C90.0326 22.4571 89.3675 21.697 87.9424 21.697C86.5489 21.697 85.8522 22.4571 85.8522 23.9772V25.7824H90.0326ZM103.757 24.0405V30.1211C103.757 33.3831 102.237 34.8715 99.0069 34.8715C95.7766 34.8715 94.2565 33.3831 94.2565 30.1211V24.0405C94.2565 20.7786 95.7766 19.2901 99.0069 19.2901C102.237 19.2901 103.757 20.7786 103.757 24.0405ZM101.097 30.1211V24.0405C101.097 22.4887 100.4 21.7603 99.0069 21.7603C97.6135 21.7603 96.9167 22.4887 96.9167 24.0405V30.1211C96.9167 31.6729 97.6135 32.4013 99.0069 32.4013C100.4 32.4013 101.097 31.6729 101.097 30.1211ZM114.733 34.6815H111.914V16.2181H108.399V13.6529H118.312V16.2181H114.733V34.6815ZM117.925 19.4801H120.68V30.1211C120.68 31.8313 121.282 32.4646 122.643 32.4646C124.005 32.4646 124.48 31.8313 124.86 29.9944V19.4801H127.584V34.6815H125.019L124.955 32.4963H124.829C124.132 34.2065 123.15 34.8715 121.472 34.8715C118.875 34.8715 117.925 33.193 117.925 30.0894V19.4801ZM135.763 30.1211V26.004H138.107V30.1211C138.107 33.3197 137.062 34.8715 133.863 34.8715C130.601 34.8715 129.113 33.3197 129.113 30.1211V15.2681H131.805V19.4801H138.107V21.9187H131.805V30.1211C131.805 31.6729 132.47 32.4013 133.895 32.4013C135.257 32.4013 135.763 31.6729 135.763 30.1211ZM149.153 24.0405V30.1211C149.153 33.3831 147.632 34.8715 144.402 34.8715C141.172 34.8715 139.652 33.3831 139.652 30.1211V24.0405C139.652 20.7786 141.172 19.2901 144.402 19.2901C147.632 19.2901 149.153 20.7786 149.153 24.0405ZM146.492 30.1211V24.0405C146.492 22.4887 145.796 21.7603 144.402 21.7603C143.009 21.7603 142.312 22.4887 142.312 24.0405V30.1211C142.312 31.6729 143.009 32.4013 144.402 32.4013C145.796 32.4013 146.492 31.6729 146.492 30.1211ZM153.409 34.6815H150.685V19.4801H153.219L153.314 22.077H153.441C154.042 20.3035 155.151 19.2901 156.734 19.2901C157.178 19.2901 157.589 19.3851 158.001 19.6068V22.1087C157.716 21.9187 157.209 21.792 156.576 21.792C154.897 21.792 153.916 22.6471 153.409 25.339V34.6815ZM161.876 34.6815H159.152V19.4801H161.876V34.6815ZM161.876 17.6116H159.152V14.1913H161.876V17.6116ZM170.127 30.6595V26.3207C169.494 26.7958 169.114 26.8275 167.942 27.1758C166.169 27.7142 165.852 28.3159 165.852 29.4877V30.8495C165.852 31.9579 166.485 32.4646 167.657 32.4646C168.924 32.4646 169.652 31.8629 170.127 30.6595ZM172.819 34.6815H170.317L170.222 32.7497H170.096C169.43 33.9214 168.48 34.8715 166.485 34.8715C164.11 34.8715 163.16 33.5414 163.16 31.4829V29.9627C163.16 27.3025 164.237 26.3841 167.214 25.529C168.607 25.1173 170.096 24.8639 170.096 23.8505V23.2171C170.096 22.172 169.462 21.6653 168.132 21.6653C166.707 21.6653 165.978 22.2354 165.978 23.3755V24.3572H163.413V23.0588C163.413 20.5252 165.218 19.2901 168.29 19.2901C171.267 19.2901 172.819 20.4302 172.819 22.8371V34.6815ZM177.046 34.6815H174.322V13.3995H177.046V34.6815ZM187.863 24.1672H185.298V23.2805C185.298 22.172 184.696 21.5703 183.271 21.5703C181.909 21.5703 181.181 22.1087 181.181 23.0588V23.5338C181.181 24.1672 181.371 24.4839 182.289 25.054C183.714 25.9407 185.139 26.3524 186.374 27.1758C187.42 27.8726 188.021 28.6643 188.021 30.2161V30.9128C188.021 33.5731 186.564 34.8715 183.334 34.8715C179.882 34.8715 178.425 33.4147 178.425 30.7228V29.8044H181.022V30.8178C181.022 32.0213 181.624 32.623 183.208 32.623C184.696 32.623 185.329 32.0846 185.329 30.9445V30.3428C185.329 29.7094 185.139 29.2027 183.999 28.5693C183.809 28.4743 180.864 26.9541 179.946 26.2574C178.932 25.4973 178.584 24.6106 178.584 23.5655V22.8054C178.584 20.7152 180.231 19.2901 183.176 19.2901C186.311 19.2901 187.863 20.8736 187.863 23.4071V24.1672Z" fill="white"/>
<defs>
<radialGradient id="paint0_angular_706_1207" cx="0" cy="0" r="1" gradientUnits="userSpaceOnUse" gradientTransform="translate(13.4268 8.85501) rotate(73.1598) scale(42.742 18.1294)">
<stop stop-color="#390E4F"/>
<stop offset="0.315" stop-color="#510F7A"/>
<stop offset="0.65" stop-color="#A21FCF"/>
<stop offset="0.925" stop-color="#B32AB6"/>
<stop offset="1" stop-color="#F046FF"/>
</radialGradient>
<radialGradient id="paint1_angular_706_1207" cx="0" cy="0" r="1" gradientUnits="userSpaceOnUse" gradientTransform="translate(13.4272 8.855) rotate(73.1598) scale(42.742 18.1294)">
<stop stop-color="#390E4F"/>
<stop offset="0.315" stop-color="#510F7A"/>
<stop offset="0.65" stop-color="#A21FCF"/>
<stop offset="0.925" stop-color="#B32AB6"/>
<stop offset="1" stop-color="#F046FF"/>
</radialGradient>
</defs>
</svg>
