<svg width="45" height="43" viewBox="0 0 45 43" fill="none" xmlns="http://www.w3.org/2000/svg">
<path d="M38.4893 22.5008V16.482H44.179V23.065C44.179 27.9553 41.3577 32.3284 34.8216 32.3284C28.0504 32.3284 25.3701 28.0024 25.3701 23.018V2.32837H31.389V8.58229H44.179V12.9083H31.389V22.4067C31.389 25.3221 32.4234 27.0149 34.9156 27.0149C37.3608 27.0149 38.4893 25.3691 38.4893 22.5008Z" fill="url(#paint0_angular_706_1208)"/>
<path d="M38.4893 22.5008V16.482H44.179V23.065C44.179 27.9553 41.3577 32.3284 34.8216 32.3284C28.0504 32.3284 25.3701 28.0024 25.3701 23.018V2.32837H31.389V8.58229H44.179V12.9083H31.389V22.4067C31.389 25.3221 32.4234 27.0149 34.9156 27.0149C37.3608 27.0149 38.4893 25.3691 38.4893 22.5008Z" fill="#F046FF" fill-opacity="0.7"/>
<path d="M15.8731 31.7171H9.47805L1.20215 8.58228H8.02036L12.8636 23.8644L17.7539 8.58228H24.196L15.8731 31.7171Z" fill="url(#paint1_angular_706_1208)"/>
<path d="M15.8731 31.7171H9.47805L1.20215 8.58228H8.02036L12.8636 23.8644L17.7539 8.58228H24.196L15.8731 31.7171Z" fill="#F046FF" fill-opacity="0.7"/>
<defs>
<radialGradient id="paint0_angular_706_1208" cx="0" cy="0" r="1" gradientUnits="userSpaceOnUse" gradientTransform="translate(7.42685 5.85501) rotate(73.1598) scale(42.742 18.1294)">
<stop stop-color="#390E4F"/>
<stop offset="0.315" stop-color="#510F7A"/>
<stop offset="0.65" stop-color="#A21FCF"/>
<stop offset="0.925" stop-color="#B32AB6"/>
<stop offset="1" stop-color="#F046FF"/>
</radialGradient>
<radialGradient id="paint1_angular_706_1208" cx="0" cy="0" r="1" gradientUnits="userSpaceOnUse" gradientTransform="translate(7.42715 5.855) rotate(73.1598) scale(42.742 18.1294)">
<stop stop-color="#390E4F"/>
<stop offset="0.315" stop-color="#510F7A"/>
<stop offset="0.65" stop-color="#A21FCF"/>
<stop offset="0.925" stop-color="#B32AB6"/>
<stop offset="1" stop-color="#F046FF"/>
</radialGradient>
</defs>
</svg>
